<svg data-v-423bf9ae="" xmlns="http://www.w3.org/2000/svg" viewBox="0 0 423 90" class="iconLeft"><!----><!----><!----><g data-v-423bf9ae="" id="bf15e49e-1b66-40bb-9485-7bfd451ec535" fill="black" transform="matrix(6.08519290965367,0,0,6.08519290965367,113.00941147039003,9.82758695459568)"><path d="M2.41 10.50L2.41 6.73C2.41 5.46 2.76 4.33 4.00 4.33C4.75 4.33 5.15 4.84 5.15 5.88L5.15 10.50L6.71 10.50L6.71 6.34C6.71 5.19 7.21 4.33 8.29 4.33C9.21 4.33 9.42 5.08 9.42 5.98L9.42 10.50L10.98 10.50L10.98 5.52C10.98 3.89 10.15 3.01 8.69 3.01C7.78 3.01 6.97 3.39 6.51 4.35C6.22 3.50 5.50 3.01 4.44 3.01C3.47 3.01 2.79 3.36 2.28 4.26L2.28 3.22L0.85 3.22L0.85 10.50ZM17.09 9.66C17.12 9.97 17.18 10.30 17.39 10.50L18.96 10.50C18.70 10.23 18.56 9.76 18.56 9.02L18.56 5.92C18.56 3.95 17.54 3.01 15.62 3.01C14.24 3.01 12.89 3.53 12.53 5.21L13.93 5.59C14.14 4.79 14.63 4.27 15.51 4.27C16.45 4.27 17.01 4.75 17.01 5.64L17.01 5.88C16.65 6.05 15.93 6.17 15.16 6.24C13.50 6.43 12.31 7.04 12.31 8.61C12.31 10.04 13.44 10.71 14.77 10.71C15.64 10.71 16.41 10.43 17.09 9.66ZM17.01 8.41C16.67 8.90 15.90 9.51 15.06 9.51C14.42 9.51 13.90 9.24 13.90 8.53C13.89 7.67 14.63 7.48 15.36 7.35C16.06 7.24 16.70 7.08 17.01 6.96ZM23.62 9.20C23.39 9.27 23.18 9.28 23.04 9.28C22.39 9.28 22.39 8.83 22.39 8.20L22.39 4.44L23.67 4.44L23.67 3.22L22.39 3.22L22.39 0.85L20.83 1.46L20.83 3.22L19.80 3.22L19.80 4.44L20.83 4.44L20.83 8.37C20.83 9.80 21.15 10.64 22.68 10.64C22.95 10.64 23.48 10.57 23.76 10.47ZM26.73 10.50L26.73 6.73C26.73 5.46 27.08 4.33 28.32 4.33C29.06 4.33 29.47 4.84 29.47 5.88L29.47 10.50L31.02 10.50L31.02 6.34C31.02 5.19 31.53 4.33 32.61 4.33C33.53 4.33 33.74 5.08 33.74 5.98L33.74 10.50L35.29 10.50L35.29 5.52C35.29 3.89 34.47 3.01 33.01 3.01C32.10 3.01 31.29 3.39 30.83 4.35C30.53 3.50 29.82 3.01 28.76 3.01C27.79 3.01 27.10 3.36 26.60 4.26L26.60 3.22L25.17 3.22L25.17 10.50ZM41.41 9.66C41.44 9.97 41.50 10.30 41.71 10.50L43.27 10.50C43.02 10.23 42.88 9.76 42.88 9.02L42.88 5.92C42.88 3.95 41.86 3.01 39.94 3.01C38.56 3.01 37.21 3.53 36.85 5.21L38.25 5.59C38.46 4.79 38.95 4.27 39.83 4.27C40.77 4.27 41.33 4.75 41.33 5.64L41.33 5.88C40.96 6.05 40.25 6.17 39.48 6.24C37.81 6.43 36.62 7.04 36.62 8.61C36.62 10.04 37.76 10.71 39.09 10.71C39.96 10.71 40.73 10.43 41.41 9.66ZM41.33 8.41C40.99 8.90 40.22 9.51 39.38 9.51C38.74 9.51 38.22 9.24 38.22 8.53C38.21 7.67 38.95 7.48 39.68 7.35C40.38 7.24 41.02 7.08 41.33 6.96ZM46.24 10.50L46.24 6.54C46.24 5.10 46.97 4.33 47.96 4.33C48.96 4.33 49.34 4.98 49.34 6.09L49.34 10.50L50.89 10.50L50.89 6.03C50.89 4.30 50.34 3.01 48.33 3.01C47.38 3.01 46.65 3.37 46.12 4.27L46.12 3.22L44.69 3.22L44.69 10.50Z"></path></g><!----><g data-v-423bf9ae="" id="8fbfd019-be09-459c-a325-8d686ddfd6db" transform="matrix(1.0227272727272727,0,0,1.0227272727272727,-1.1363636363636331,-6.136363636363633)" stroke="none" fill="black"><path d="M98 91V9a3 3 0 0 0-3-3H5a3 3 0 0 0-3 3v82a3 3 0 0 0 3 3h90a3 3 0 0 0 3-3zM8 12h84v7.5H8zm0 76V25.5h84V88z"></path><path d="M85 34.5H50a3 3 0 0 0-3 3v9a3 3 0 0 0 3 3h35a3 3 0 0 0 3-3v-9a3 3 0 0 0-3-3zm-3 9H53v-3h29zM25.18 43.96l-9-7.15-3.73 4.7 13.51 10.74 15.67-18.21-4.55-3.92-11.9 13.84zM85 62.5H50a3 3 0 0 0-3 3v9a3 3 0 0 0 3 3h35a3 3 0 0 0 3-3v-9a3 3 0 0 0-3-3zm-3 9H53v-3h29zM35.7 57.56l-8.2 8.2-8.2-8.2-4.24 4.24 8.2 8.2-8.2 8.2 4.24 4.24 8.2-8.2 8.2 8.2 4.24-4.24-8.2-8.2 8.2-8.2-4.24-4.24z"></path></g><!----></svg>