<svg data-v-423bf9ae="" xmlns="http://www.w3.org/2000/svg" viewBox="0 0 65.45454545454545 60" class="icon"><!----><!----><!----><!----><g data-v-423bf9ae="" id="cf1c3d0c-5537-4c26-9220-6000d6d1be0d" transform="matrix(0.6818181818181818,0,0,0.6818181818181818,-1.3636370572176801,-4.090909090909086)" stroke="none" fill="white"><path d="M98 91V9a3 3 0 0 0-3-3H5a3 3 0 0 0-3 3v82a3 3 0 0 0 3 3h90a3 3 0 0 0 3-3zM8 12h84v7.5H8zm0 76V25.5h84V88z"></path><path d="M85 34.5H50a3 3 0 0 0-3 3v9a3 3 0 0 0 3 3h35a3 3 0 0 0 3-3v-9a3 3 0 0 0-3-3zm-3 9H53v-3h29zM25.18 43.96l-9-7.15-3.73 4.7 13.51 10.74 15.67-18.21-4.55-3.92-11.9 13.84zM85 62.5H50a3 3 0 0 0-3 3v9a3 3 0 0 0 3 3h35a3 3 0 0 0 3-3v-9a3 3 0 0 0-3-3zm-3 9H53v-3h29zM35.7 57.56l-8.2 8.2-8.2-8.2-4.24 4.24 8.2 8.2-8.2 8.2 4.24 4.24 8.2-8.2 8.2 8.2 4.24-4.24-8.2-8.2 8.2-8.2-4.24-4.24z"></path></g><!----></svg>