<svg data-v-fde0c5aa="" xmlns="http://www.w3.org/2000/svg" viewBox="0 0 300 300" class="iconLeftSlogan"><!----><defs data-v-fde0c5aa=""><!----></defs><rect data-v-fde0c5aa="" fill="#FB690A" x="0" y="0" width="300px" height="300px" class="logo-background-square"></rect><defs data-v-fde0c5aa=""><!----></defs><g data-v-fde0c5aa="" id="fdc77adc-59a1-4e16-b9a1-bea94678ad27" fill="#FFFDFB" transform="matrix(2.6757620186875384,0,0,2.6757620186875384,123.83046835546271,124.53409592751588)"><path d="M2.41 10.50L2.41 6.73C2.41 5.46 2.76 4.33 4.00 4.33C4.75 4.33 5.15 4.84 5.15 5.88L5.15 10.50L6.71 10.50L6.71 6.34C6.71 5.19 7.21 4.33 8.29 4.33C9.21 4.33 9.42 5.08 9.42 5.98L9.42 10.50L10.98 10.50L10.98 5.52C10.98 3.89 10.15 3.01 8.69 3.01C7.78 3.01 6.97 3.39 6.51 4.35C6.22 3.50 5.50 3.01 4.44 3.01C3.47 3.01 2.79 3.36 2.28 4.26L2.28 3.22L0.85 3.22L0.85 10.50ZM17.09 9.66C17.12 9.97 17.18 10.30 17.39 10.50L18.96 10.50C18.70 10.23 18.56 9.76 18.56 9.02L18.56 5.92C18.56 3.95 17.54 3.01 15.62 3.01C14.24 3.01 12.89 3.53 12.53 5.21L13.93 5.59C14.14 4.79 14.63 4.27 15.51 4.27C16.45 4.27 17.01 4.75 17.01 5.64L17.01 5.88C16.65 6.05 15.93 6.17 15.16 6.24C13.50 6.43 12.31 7.04 12.31 8.61C12.31 10.04 13.44 10.71 14.77 10.71C15.64 10.71 16.41 10.43 17.09 9.66ZM17.01 8.41C16.67 8.90 15.90 9.51 15.06 9.51C14.42 9.51 13.90 9.24 13.90 8.53C13.89 7.67 14.63 7.48 15.36 7.35C16.06 7.24 16.70 7.08 17.01 6.96ZM23.62 9.20C23.39 9.27 23.18 9.28 23.04 9.28C22.39 9.28 22.39 8.83 22.39 8.20L22.39 4.44L23.67 4.44L23.67 3.22L22.39 3.22L22.39 0.85L20.83 1.46L20.83 3.22L19.80 3.22L19.80 4.44L20.83 4.44L20.83 8.37C20.83 9.80 21.15 10.64 22.68 10.64C22.95 10.64 23.48 10.57 23.76 10.47ZM26.73 10.50L26.73 6.73C26.73 5.46 27.08 4.33 28.32 4.33C29.06 4.33 29.47 4.84 29.47 5.88L29.47 10.50L31.02 10.50L31.02 6.34C31.02 5.19 31.53 4.33 32.61 4.33C33.53 4.33 33.74 5.08 33.74 5.98L33.74 10.50L35.29 10.50L35.29 5.52C35.29 3.89 34.47 3.01 33.01 3.01C32.10 3.01 31.29 3.39 30.83 4.35C30.53 3.50 29.82 3.01 28.76 3.01C27.79 3.01 27.10 3.36 26.60 4.26L26.60 3.22L25.17 3.22L25.17 10.50ZM41.41 9.66C41.44 9.97 41.50 10.30 41.71 10.50L43.27 10.50C43.02 10.23 42.88 9.76 42.88 9.02L42.88 5.92C42.88 3.95 41.86 3.01 39.94 3.01C38.56 3.01 37.21 3.53 36.85 5.21L38.25 5.59C38.46 4.79 38.95 4.27 39.83 4.27C40.77 4.27 41.33 4.75 41.33 5.64L41.33 5.88C40.96 6.05 40.25 6.17 39.48 6.24C37.81 6.43 36.62 7.04 36.62 8.61C36.62 10.04 37.76 10.71 39.09 10.71C39.96 10.71 40.73 10.43 41.41 9.66ZM41.33 8.41C40.99 8.90 40.22 9.51 39.38 9.51C38.74 9.51 38.22 9.24 38.22 8.53C38.21 7.67 38.95 7.48 39.68 7.35C40.38 7.24 41.02 7.08 41.33 6.96ZM46.24 10.50L46.24 6.54C46.24 5.10 46.97 4.33 47.96 4.33C48.96 4.33 49.34 4.98 49.34 6.09L49.34 10.50L50.89 10.50L50.89 6.03C50.89 4.30 50.34 3.01 48.33 3.01C47.38 3.01 46.65 3.37 46.12 4.27L46.12 3.22L44.69 3.22L44.69 10.50Z"></path></g><defs data-v-fde0c5aa=""><!----></defs><g data-v-fde0c5aa="" id="ea682d2a-e40c-45f8-9e54-0f66fdf08757" stroke="none" fill="#FFFDFB" transform="matrix(0.7615090222410651,0,0,0.7615090222410651,38.47698195551787,111.92454888794676)"><path d="M98 91V9a3 3 0 0 0-3-3H5a3 3 0 0 0-3 3v82a3 3 0 0 0 3 3h90a3 3 0 0 0 3-3zM8 12h84v7.5H8zm0 76V25.5h84V88z"></path><path d="M85 34.5H50a3 3 0 0 0-3 3v9a3 3 0 0 0 3 3h35a3 3 0 0 0 3-3v-9a3 3 0 0 0-3-3zm-3 9H53v-3h29zM25.18 43.96l-9-7.15-3.73 4.7 13.51 10.74 15.67-18.21-4.55-3.92-11.9 13.84zM85 62.5H50a3 3 0 0 0-3 3v9a3 3 0 0 0 3 3h35a3 3 0 0 0 3-3v-9a3 3 0 0 0-3-3zm-3 9H53v-3h29zM35.7 57.56l-8.2 8.2-8.2-8.2-4.24 4.24 8.2 8.2-8.2 8.2 4.24 4.24 8.2-8.2 8.2 8.2 4.24-4.24-8.2-8.2 8.2-8.2-4.24-4.24z"></path></g><defs data-v-fde0c5aa=""><!----></defs><g data-v-fde0c5aa="" id="c57cf611-cc4b-4fdc-9097-833cf65e7100" fill="#FFFDFB" transform="matrix(1.06545020837921,0,0,1.06545020837921,124.97548897522584,162.7440171875037)"><path d="M4.44 10.50C7.73 10.50 9.30 8.58 9.30 5.43C9.30 2.18 7.57 0.42 4.28 0.42L1.06 0.42L1.06 10.50ZM2.72 1.90L4.17 1.90C6.19 1.90 7.60 2.66 7.60 5.42C7.60 7.94 6.48 9.03 4.21 9.03L2.72 9.03ZM17.18 7.28C17.19 7.21 17.19 6.85 17.19 6.66C17.19 4.44 15.89 3.01 13.82 3.01C11.86 3.01 10.39 4.35 10.39 6.86C10.39 9.37 11.86 10.71 13.82 10.71C15.47 10.71 16.63 9.93 17.09 8.37L15.62 8.06C15.41 8.93 14.71 9.42 13.92 9.42C12.91 9.42 12.04 8.76 11.94 7.28ZM13.80 4.31C14.85 4.31 15.53 5.05 15.58 6.13L11.98 6.13C12.17 4.89 12.99 4.31 13.80 4.31ZM18.07 8.40C18.20 9.83 19.31 10.71 21.08 10.71C22.64 10.71 24.05 10.04 24.05 8.43C24.05 7.03 23.09 6.52 22.22 6.30L20.36 5.84C19.95 5.74 19.59 5.52 19.59 5.11C19.59 4.56 20.10 4.26 20.99 4.26C21.77 4.26 22.30 4.59 22.41 5.33L23.81 5.11C23.73 3.92 22.76 3.01 21.03 3.01C19.53 3.01 18.19 3.65 18.19 5.22C18.19 6.43 19.04 6.96 19.99 7.20L21.76 7.64C22.34 7.80 22.60 8.05 22.60 8.53C22.60 9.25 21.78 9.46 21.13 9.46C20.06 9.46 19.59 8.90 19.49 8.18L18.07 8.40ZM26.89 2.00L26.89 0.42L25.34 0.42L25.34 2.00ZM26.89 10.50L26.89 3.22L25.34 3.22L25.34 10.50ZM34.75 10.04L34.75 3.22L33.33 3.22L33.33 4.17C32.91 3.47 32.24 3.01 31.33 3.01C29.41 3.01 28.20 4.47 28.20 6.83C28.20 9.20 29.44 10.67 31.36 10.67C32.13 10.67 32.77 10.35 33.19 9.79L33.19 10.25C33.22 11.47 32.66 12.18 31.43 12.18C30.62 12.18 29.99 11.82 29.92 11.14L28.43 10.96C28.43 12.70 30.00 13.44 31.42 13.44C33.98 13.44 34.75 11.84 34.75 10.04ZM33.35 6.83C33.35 8.54 32.56 9.37 31.53 9.37C30.51 9.37 29.75 8.54 29.75 6.83C29.75 5.14 30.52 4.31 31.53 4.31C32.44 4.31 33.35 5.14 33.35 6.83ZM38.01 10.50L38.01 6.54C38.01 5.10 38.74 4.33 39.73 4.33C40.73 4.33 41.10 4.98 41.10 6.09L41.10 10.50L42.66 10.50L42.66 6.03C42.66 4.30 42.11 3.01 40.10 3.01C39.14 3.01 38.42 3.37 37.88 4.27L37.88 3.22L36.46 3.22L36.46 10.50ZM50.19 10.50L50.19 4.44L51.66 4.44L51.66 3.22L50.19 3.22L50.19 2.90C50.19 2.17 50.47 1.79 51.13 1.79C51.35 1.79 51.73 1.85 51.93 1.93L52.16 0.67C51.93 0.56 51.34 0.45 50.83 0.45C49.38 0.45 48.68 1.39 48.68 2.93L48.68 3.22L47.59 3.22L47.59 4.44L48.68 4.44L48.68 10.50ZM52.33 6.86C52.33 9.37 53.82 10.71 55.82 10.71C57.81 10.71 59.29 9.37 59.29 6.86C59.29 4.35 57.81 3.01 55.82 3.01C53.82 3.01 52.33 4.35 52.33 6.86ZM53.89 6.86C53.89 5.10 54.75 4.31 55.82 4.31C56.87 4.31 57.74 5.10 57.74 6.86C57.74 8.62 56.87 9.42 55.82 9.42C54.75 9.42 53.89 8.62 53.89 6.86ZM62.13 10.50L62.13 6.82C62.13 5.40 62.73 4.47 63.94 4.47C64.37 4.47 64.65 4.59 64.93 4.77L65.28 3.39C64.95 3.12 64.55 3.01 63.99 3.01C63.04 3.01 62.47 3.50 62.01 4.48L62.01 3.22L60.58 3.22L60.58 10.50ZM73.79 10.50L76.08 2.20L78.36 10.50L80.15 10.50L82.71 0.42L81.02 0.42L79.23 8.60L77.04 0.42L75.10 0.42L73.00 8.60L71.13 0.42L69.44 0.42L71.99 10.50ZM89.39 7.28C89.40 7.21 89.40 6.85 89.40 6.66C89.40 4.44 88.10 3.01 86.03 3.01C84.07 3.01 82.60 4.35 82.60 6.86C82.60 9.37 84.07 10.71 86.03 10.71C87.68 10.71 88.84 9.93 89.31 8.37L87.84 8.06C87.63 8.93 86.93 9.42 86.13 9.42C85.12 9.42 84.25 8.76 84.15 7.28ZM86.02 4.31C87.07 4.31 87.74 5.05 87.79 6.13L84.20 6.13C84.38 4.89 85.20 4.31 86.02 4.31ZM90.71 0.42L90.71 10.50L92.12 10.50L92.12 9.56C92.54 10.26 93.21 10.71 94.14 10.71C96.05 10.71 97.26 9.23 97.26 6.86C97.26 4.49 96.03 3.01 94.11 3.01C93.34 3.01 92.68 3.33 92.26 3.95L92.26 0.42ZM92.11 6.86C92.11 5.17 92.89 4.31 93.93 4.31C94.96 4.31 95.70 5.17 95.70 6.86C95.70 8.57 94.95 9.42 93.94 9.42C93.02 9.42 92.11 8.57 92.11 6.86ZM106.85 10.50L106.85 1.90L110.14 1.90L110.14 0.42L101.91 0.42L101.91 1.90L105.20 1.90L105.20 10.50ZM115.18 7.28C115.19 7.21 115.19 6.85 115.19 6.66C115.19 4.44 113.89 3.01 111.82 3.01C109.86 3.01 108.39 4.35 108.39 6.86C108.39 9.37 109.86 10.71 111.82 10.71C113.47 10.71 114.63 9.93 115.09 8.37L113.62 8.06C113.41 8.93 112.71 9.42 111.92 9.42C110.91 9.42 110.04 8.76 109.94 7.28ZM111.80 4.31C112.85 4.31 113.53 5.05 113.58 6.13L109.98 6.13C110.17 4.89 110.99 4.31 111.80 4.31ZM116.07 8.40C116.20 9.83 117.31 10.71 119.08 10.71C120.64 10.71 122.05 10.04 122.05 8.43C122.05 7.03 121.09 6.52 120.22 6.30L118.36 5.84C117.95 5.74 117.59 5.52 117.59 5.11C117.59 4.56 118.10 4.26 118.99 4.26C119.77 4.26 120.30 4.59 120.41 5.33L121.81 5.11C121.73 3.92 120.76 3.01 119.03 3.01C117.53 3.01 116.19 3.65 116.19 5.22C116.19 6.43 117.04 6.96 117.99 7.20L119.76 7.64C120.34 7.80 120.60 8.05 120.60 8.53C120.60 9.25 119.78 9.46 119.13 9.46C118.06 9.46 117.59 8.90 117.49 8.18L116.07 8.40ZM126.59 9.20C126.36 9.27 126.15 9.28 126.01 9.28C125.36 9.28 125.36 8.83 125.36 8.20L125.36 4.44L126.64 4.44L126.64 3.22L125.36 3.22L125.36 0.85L123.80 1.46L123.80 3.22L122.77 3.22L122.77 4.44L123.80 4.44L123.80 8.37C123.80 9.80 124.12 10.64 125.65 10.64C125.92 10.64 126.45 10.57 126.73 10.47Z"></path></g></svg>