<svg data-v-fde0c5aa="" xmlns="http://www.w3.org/2000/svg" viewBox="0 0 300 300" class="icon"><!----><defs data-v-fde0c5aa=""><!----></defs><rect data-v-fde0c5aa="" fill="#FB690A" x="0" y="0" width="300px" height="300px" class="logo-background-square"></rect><!----><defs data-v-fde0c5aa=""><!----></defs><g data-v-fde0c5aa="" id="5d3541e3-d4e0-4ed4-b390-ddb8ea4af06d" fill="#FFFDFB" stroke="none" transform="matrix(2.2916666666666665,0,0,2.2916666666666665,35.416666666666664,35.41666666666667)"><path d="M98 91V9a3 3 0 0 0-3-3H5a3 3 0 0 0-3 3v82a3 3 0 0 0 3 3h90a3 3 0 0 0 3-3zM8 12h84v7.5H8zm0 76V25.5h84V88z"></path><path d="M85 34.5H50a3 3 0 0 0-3 3v9a3 3 0 0 0 3 3h35a3 3 0 0 0 3-3v-9a3 3 0 0 0-3-3zm-3 9H53v-3h29zM25.18 43.96l-9-7.15-3.73 4.7 13.51 10.74 15.67-18.21-4.55-3.92-11.9 13.84zM85 62.5H50a3 3 0 0 0-3 3v9a3 3 0 0 0 3 3h35a3 3 0 0 0 3-3v-9a3 3 0 0 0-3-3zm-3 9H53v-3h29zM35.7 57.56l-8.2 8.2-8.2-8.2-4.24 4.24 8.2 8.2-8.2 8.2 4.24 4.24 8.2-8.2 8.2 8.2 4.24-4.24-8.2-8.2 8.2-8.2-4.24-4.24z"></path></g><!----></svg>